<?xml version="1.0" standalone="no"?>
<!DOCTYPE svg PUBLIC "-//W3C//DTD SVG 20010904//EN"
 "http://www.w3.org/TR/2001/REC-SVG-20010904/DTD/svg10.dtd">
<svg version="1.0" xmlns="http://www.w3.org/2000/svg"
 width="70.000000pt" height="70.000000pt" viewBox="0 0 70.000000 70.000000"
 preserveAspectRatio="xMidYMid meet">
<metadata>
Created by potrace 1.13, written by Peter Selinger 2001-2015
</metadata>
<g transform="translate(0.000000,70.000000) scale(0.100000,-0.100000)"
fill="#000000" stroke="none">
<path d="M346 644 c-3 -9 -6 -32 -6 -51 l0 -36 -42 6 c-44 6 -83 -7 -72 -24 3
-6 25 -19 48 -29 l41 -19 -57 0 c-57 -1 -75 -12 -41 -25 9 -4 41 -4 70 0 49 6
53 5 53 -15 0 -17 -6 -21 -30 -21 -18 0 -33 -6 -36 -15 -4 -10 -13 -13 -25
-10 -11 4 -26 -2 -38 -14 -12 -12 -29 -21 -39 -21 -37 0 -42 -20 -42 -161 0
-178 -7 -170 153 -167 118 3 122 4 134 28 9 18 13 82 13 216 l0 192 42 -9 c44
-10 98 -4 98 12 0 5 -26 9 -57 9 l-58 1 43 21 c68 33 45 66 -33 48 -35 -8 -35
-8 -35 27 0 19 -5 43 -10 54 -13 24 -65 26 -74 3z m48 -330 c21 -20 23 -211 3
-237 -11 -15 -28 -17 -127 -15 l-115 3 -3 68 -3 67 63 1 c35 1 77 0 95 -1 39
-2 60 28 43 60 -8 15 -21 20 -48 20 -37 0 -82 22 -82 41 0 5 36 9 79 9 59 0
84 -4 95 -16z"/>
</g>
</svg>
